<?xml version="1.0" standalone="no"?>
<!DOCTYPE svg PUBLIC "-//W3C//DTD SVG 20010904//EN"
 "http://www.w3.org/TR/2001/REC-SVG-20010904/DTD/svg10.dtd">
<svg version="1.0" xmlns="http://www.w3.org/2000/svg"
 width="512.000000pt" height="512.000000pt" viewBox="0 0 512.000000 512.000000"
 preserveAspectRatio="xMidYMid meet">

<g transform="translate(0.000000,512.000000) scale(0.100000,-0.100000)"
fill="#000000" stroke="none">
<path d="M2340 5110 c-164 -23 -324 -72 -465 -142 -409 -205 -687 -565 -787
-1021 l-23 -102 0 -1790 0 -1790 26 -56 c37 -79 90 -133 167 -171 59 -29 76
-33 152 -33 76 0 93 4 152 33 77 38 130 92 167 171 l26 56 3 403 c2 222 6 402
10 400 4 -2 48 -24 97 -49 113 -58 237 -102 368 -131 93 -21 129 -22 422 -23
272 0 333 3 405 18 499 107 871 479 977 977 24 116 25 363 0 476 -26 122 -53
198 -112 319 -84 168 -212 324 -357 434 l-57 42 46 71 c84 130 146 282 180
442 25 113 24 360 0 476 -106 497 -480 872 -972 975 -93 20 -330 28 -425 15z
m314 -710 c99 -25 174 -68 246 -140 197 -197 212 -498 36 -722 -58 -73 -131
-122 -288 -193 -153 -69 -205 -110 -250 -203 -30 -59 -33 -76 -33 -152 0 -76
4 -93 33 -152 38 -77 92 -130 171 -166 49 -23 75 -27 206 -33 164 -8 227 -22
314 -72 70 -39 159 -128 199 -199 39 -68 72 -191 72 -267 -1 -136 -59 -279
-155 -375 -76 -78 -151 -121 -255 -147 -74 -19 -103 -20 -323 -16 -266 5 -305
11 -432 72 -153 73 -281 199 -354 349 -79 161 -75 109 -78 971 -3 676 -2 780
12 849 32 155 99 280 210 391 182 183 443 263 669 205z"/>
</g>
</svg>
